# xmcd CD database file
#
# Track frame offsets:
#	182
#	25820
#	60572
#	78072
#	100340
#	118637
#	140075
#	157925
#	186227
#	210385
#	235767
#	256972
#	281400
#
# Disc length: 4199 seconds
#
# Revision: 3
# Processed by: cddbd v1.5.2PL0 Copyright (c) Steve Scherf et al.
# Submitted via: CDex 1.51
#
DISCID=a710650d
DTITLE=Bill Deraime - Live
DYEAR=1993
DGENRE=Blues
TTITLE0=Quelqu'un Appelle (Live)
TTITLE1=Je m'Sentais Mal (Live)
TTITLE2=Faut Que J'me Tire Ailleurs (Live)
TTITLE3=Prisonnier (Live)
TTITLE4=Amour Amour (Live)
TTITLE5=L'Enfant Est Né (Live)
TTITLE6=Pauvre De Moi (Live)
TTITLE7=Changer De Quai (Live)
TTITLE8=Un Jour Tu Trouves (Live)
TTITLE9=Entre Deux Eaux (Live)
TTITLE10=Sur Le Bord De La Route (Live)
TTITLE11=Babylone Tu Déconnes (Live)
TTITLE12=Y'en Avait Marre (Live)
EXTD=YEAR: 1993
EXTT0=
EXTT1=
EXTT2=
EXTT3=
EXTT4=
EXTT5=
EXTT6=
EXTT7=
EXTT8=
EXTT9=
EXTT10=
EXTT11=
EXTT12=
PLAYORDER=
